<svg xmlns="http://www.w3.org/2000/svg" width="2048" height="2048" viewBox="0 0 2048 2048" version="1.1"><path d="M 1193.737 165.692 C 1192.767 165.945, 1191.138 167.805, 1190.117 169.826 C 1185.918 178.137, 1184.919 179.763, 1182.891 181.588 C 1181.723 182.640, 1179.387 185.525, 1177.700 188 C 1176.012 190.475, 1174.329 192.725, 1173.959 193 C 1173.588 193.275, 1170.866 196.425, 1167.908 200 C 1154.067 216.731, 1120.639 249.106, 1102.117 263.721 C 1098.478 266.592, 1093.537 270.623, 1091.138 272.678 C 1082.242 280.298, 1051.087 302.735, 1033 314.548 C 1028.875 317.242, 1025.350 319.796, 1025.167 320.223 C 1024.983 320.650, 1024.391 321, 1023.850 321 C 1023.309 321, 1021.392 322.125, 1019.589 323.500 C 1017.786 324.875, 1015.791 326, 1015.156 326 C 1014.520 326, 1014 326.450, 1014 327 C 1014 327.550, 1013.569 328, 1013.042 328 C 1012.515 328, 1007.096 331.150, 1001 335 C 994.904 338.850, 989.714 342, 989.468 342 C 989.222 342, 985.861 344.025, 982 346.500 C 978.139 348.975, 974.534 351, 973.990 351 C 973.445 351, 973 351.398, 973 351.883 C 973 352.369, 972.212 353.016, 971.250 353.320 C 970.288 353.624, 965.450 356.154, 960.500 358.943 C 955.550 361.732, 949.813 364.792, 947.750 365.743 C 945.688 366.694, 944 367.816, 944 368.236 C 944 368.656, 943.190 369, 942.200 369 C 941.210 369, 939.972 369.402, 939.450 369.894 C 938.928 370.385, 930.134 375.062, 919.908 380.286 C 909.683 385.511, 900.458 390.238, 899.408 390.791 C 896.109 392.530, 867.609 406.125, 865.250 407.084 C 864.013 407.588, 861.987 408.406, 860.750 408.902 C 859.513 409.399, 853.550 412.143, 847.500 415.002 C 833.444 421.644, 829.320 423.492, 825 425.085 C 823.075 425.795, 818.236 427.866, 814.246 429.688 C 810.256 431.509, 806.537 433, 805.982 433 C 805.427 433, 804.191 433.428, 803.236 433.952 C 802.281 434.475, 799.700 435.647, 797.500 436.556 C 795.300 437.464, 791.700 439.007, 789.500 439.982 C 787.300 440.958, 783.475 442.540, 781 443.498 C 773.602 446.361, 771.587 447.189, 769.764 448.117 C 768.809 448.603, 767.093 449, 765.952 449 C 764.810 449, 761.542 450.084, 758.688 451.409 C 753.837 453.661, 751.543 454.179, 740 455.629 C 737.525 455.940, 735.072 456.600, 734.550 457.097 C 734.027 457.594, 732.227 458.003, 730.550 458.006 C 728.872 458.010, 726.211 458.685, 724.636 459.506 C 723.060 460.328, 720.724 461, 719.445 461 C 718.165 461, 716.840 461.450, 716.500 462 C 716.160 462.550, 714.703 463, 713.262 463 C 711.821 463, 709.260 463.419, 707.571 463.930 C 705.882 464.442, 701.800 465.623, 698.500 466.555 C 695.200 467.487, 691.719 468.643, 690.764 469.124 C 689.809 469.606, 688.148 470, 687.073 470 C 685.998 470, 684.840 470.450, 684.500 471 C 684.160 471.550, 683.002 472, 681.927 472 C 680.852 472, 679.191 472.404, 678.236 472.898 C 677.281 473.392, 673.125 475.004, 669 476.480 C 661.342 479.220, 660.465 479.558, 653.500 482.466 C 647.195 485.097, 645.178 485.929, 642.500 487 C 636.929 489.228, 635.095 490.042, 625.500 494.541 C 613.101 500.354, 597.801 508.007, 592.500 511.046 C 590.300 512.308, 586.878 514.276, 584.895 515.420 C 582.912 516.564, 577.400 519.722, 572.645 522.439 C 567.890 525.155, 564 527.742, 564 528.189 C 564 528.635, 563.480 529, 562.844 529 C 562.209 529, 560.214 530.125, 558.411 531.500 C 556.608 532.875, 554.653 534, 554.067 534 C 553.480 534, 553 534.367, 553 534.816 C 553 535.265, 551.290 536.593, 549.199 537.768 C 538.881 543.567, 505.998 570.032, 487.917 587.090 C 472.703 601.442, 451.075 624.658, 439.557 639 C 435.360 644.225, 428.690 652.506, 424.734 657.403 C 420.778 662.299, 413.627 671.749, 408.843 678.403 C 399.791 690.991, 375.513 728.275, 372.966 733.500 C 372.161 735.150, 371.240 736.725, 370.919 737 C 369.122 738.538, 362.358 751.300, 347.597 781 C 343.906 788.425, 340.455 795.293, 339.928 796.262 C 339.400 797.231, 338.247 800.156, 337.365 802.762 C 335.834 807.288, 334.691 809.993, 329.363 821.688 C 328.063 824.542, 327 827.134, 327 827.449 C 327 827.764, 326.150 829.929, 325.111 832.261 C 322.491 838.137, 320.111 844.441, 317.845 851.500 C 316.785 854.800, 315.549 858.400, 315.097 859.500 C 313.749 862.781, 309.926 874.140, 308.365 879.500 C 307.565 882.250, 306.531 885.400, 306.069 886.500 C 305.606 887.600, 304.674 890.525, 303.998 893 C 303.322 895.475, 302.400 898.625, 301.950 900 C 299.960 906.081, 298 913.981, 298 915.917 C 298 917.078, 297.594 918.809, 297.097 919.764 C 296.023 921.830, 294.903 925.952, 291.599 940 C 288.620 952.666, 288.675 952.408, 284.967 971.250 C 284.399 974.138, 283.553 979.043, 283.088 982.150 C 282.622 985.258, 281.882 988.383, 281.442 989.094 C 280.502 990.615, 279.062 1002.177, 278.402 1013.500 C 278.146 1017.900, 277.518 1022.400, 277.007 1023.500 C 276.496 1024.600, 275.857 1028.425, 275.588 1032 C 275.319 1035.575, 274.649 1044.575, 274.099 1052 C 273.549 1059.425, 272.641 1068.650, 272.082 1072.500 C 270.781 1081.460, 270.812 1174.609, 272.118 1182 C 272.653 1185.025, 273.510 1193.350, 274.022 1200.500 C 274.534 1207.650, 275.434 1217.550, 276.021 1222.500 C 276.608 1227.450, 277.324 1235.396, 277.613 1240.157 C 278.039 1247.187, 278.521 1249.161, 280.179 1250.657 C 282.186 1252.469, 282.289 1252.424, 286.254 1248 C 288.473 1245.525, 291.872 1241.025, 293.808 1238 C 295.744 1234.975, 297.621 1232.275, 297.980 1232 C 298.339 1231.725, 300.017 1229.475, 301.710 1227 C 303.403 1224.525, 305.791 1221.375, 307.016 1220 C 308.242 1218.625, 311.099 1215.025, 313.367 1212 C 315.634 1208.975, 317.732 1206.275, 318.029 1206 C 318.326 1205.725, 319.603 1204.150, 320.866 1202.500 C 322.129 1200.850, 324.603 1197.925, 326.363 1196 C 328.123 1194.075, 330.835 1190.700, 332.390 1188.500 L 335.216 1184.500 331.497 1188.500 C 325.304 1195.162, 305.141 1220.583, 293.483 1236.427 L 282.500 1251.355 281.341 1244.927 C 279.601 1235.273, 277.235 1215.703, 275.305 1195 C 273.119 1171.543, 272.789 1088.891, 274.789 1065.500 C 281.251 989.910, 292.129 934.268, 312.713 871.500 C 347.178 766.409, 401.968 676.509, 478.500 599.476 C 549.618 527.893, 636.199 480.924, 738.449 458.458 C 756.207 454.556, 758.984 453.661, 783.500 443.935 C 867.476 410.620, 954.743 367.088, 1017.500 327.208 C 1094.951 277.991, 1149.814 230.343, 1187.910 179.208 C 1192.536 173, 1196.657 168.276, 1197.068 168.710 C 1197.480 169.145, 1198.751 174.225, 1199.893 180 C 1216.987 266.437, 1211.570 360.722, 1185.127 436.971 C 1182.367 444.930, 1180.299 451.632, 1180.531 451.864 C 1180.763 452.096, 1181.229 451.434, 1181.567 450.393 C 1182.244 448.308, 1182.571 447.465, 1186.386 438 C 1187.827 434.425, 1189.004 430.739, 1189.003 429.809 C 1189.001 428.879, 1189.450 427.840, 1190 427.500 C 1190.550 427.160, 1191 425.777, 1191 424.427 C 1191 423.077, 1191.406 421.191, 1191.903 420.236 C 1192.399 419.281, 1193.263 416.700, 1193.823 414.500 C 1197.365 400.582, 1198.284 397.315, 1199.094 395.764 C 1199.592 394.809, 1200 392.023, 1200 389.573 C 1200 387.123, 1200.400 384.871, 1200.890 384.568 C 1201.816 383.996, 1202.530 380.629, 1203.874 370.500 C 1204.312 367.200, 1205.194 363.233, 1205.835 361.685 C 1206.476 360.137, 1207 356.901, 1207 354.494 C 1207 352.087, 1207.450 349.840, 1208 349.500 C 1208.571 349.147, 1209 344.056, 1209 337.641 C 1209 331.458, 1209.424 325.973, 1209.942 325.450 C 1212.068 323.304, 1212.786 276.990, 1211.065 253 C 1210.493 245.025, 1209.604 232.650, 1209.088 225.500 C 1207.848 208.298, 1206.597 198.982, 1205.170 196.316 C 1204.526 195.114, 1204 191.653, 1204 188.625 C 1204 185.596, 1203.550 182.840, 1203 182.500 C 1202.450 182.160, 1202 179.710, 1202 177.055 C 1202 170.994, 1198.769 164.574, 1196 165.131 C 1195.725 165.187, 1194.707 165.439, 1193.737 165.692 M 1411.821 340.281 C 1407.394 344.655, 1405 347.774, 1405 349.167 C 1405 350.628, 1400.804 356.199, 1395.227 362.143 C 1392.831 364.697, 1389.777 368.269, 1388.440 370.081 C 1387.103 371.894, 1385.652 373.629, 1385.215 373.938 C 1384.779 374.247, 1380.898 378.550, 1376.592 383.500 C 1372.285 388.450, 1367.825 393.320, 1366.681 394.322 C 1365.536 395.325, 1358.277 402.126, 1350.550 409.437 C 1328.669 430.137, 1325.484 433, 1324.335 433 C 1323.982 433, 1321.381 435.137, 1318.554 437.750 C 1312.315 443.518, 1311.091 444.508, 1298.471 454 C 1292.987 458.125, 1288.275 461.725, 1288 462 C 1287.725 462.275, 1286.750 462.950, 1285.833 463.500 C 1284.916 464.050, 1279.657 467.762, 1274.146 471.750 C 1268.636 475.738, 1263.686 479, 1263.147 479 C 1262.608 479, 1262.017 479.378, 1261.833 479.840 C 1261.650 480.302, 1254.525 485.098, 1246 490.498 C 1237.475 495.898, 1230.275 500.616, 1230 500.981 C 1229.725 501.347, 1228.825 501.941, 1228 502.302 C 1227.175 502.662, 1224.700 504.099, 1222.500 505.495 C 1220.300 506.890, 1217.713 508.302, 1216.750 508.632 C 1215.787 508.963, 1215 509.578, 1215 510 C 1215 510.983, 1204.446 516, 1202.377 516 C 1201.514 516, 1199.614 515.380, 1198.154 514.622 C 1196.694 513.864, 1194.375 512.785, 1193 512.224 C 1188.271 510.295, 1182.488 507.700, 1176.573 504.853 C 1173.313 503.284, 1169.938 501.967, 1169.073 501.927 C 1168.208 501.887, 1166.150 501.049, 1164.500 500.066 C 1162.002 498.577, 1161.539 497.710, 1161.731 494.889 L 1161.961 491.500 1160.536 494.082 C 1159.753 495.503, 1158.974 497.184, 1158.806 497.818 C 1158.633 498.469, 1165.905 502.176, 1175.500 506.328 C 1184.850 510.374, 1194.896 514.905, 1197.823 516.396 L 1203.147 519.108 1208.823 515.907 C 1229.924 504.008, 1275.835 473.641, 1297.814 457.046 C 1343.948 422.214, 1383.712 383.443, 1408.884 348.750 C 1412.376 343.938, 1415.555 340, 1415.949 340 C 1417.357 340, 1422.948 372.307, 1425.468 395 C 1435.345 483.937, 1423.006 571.171, 1390.249 644 L 1387.325 650.500 1406.410 670.500 C 1489.552 757.628, 1534.195 797.287, 1594.865 837.914 C 1643.659 870.588, 1698.606 896.502, 1746.958 909.644 C 1759.569 913.072, 1766.509 916.699, 1772.298 922.887 C 1779.695 930.796, 1781.407 935.488, 1781.457 948 C 1781.497 957.851, 1781.296 958.931, 1778.196 965.477 C 1768.039 986.928, 1744.405 1015.961, 1723 1033.283 C 1686.704 1062.655, 1638.083 1081.549, 1583.319 1087.563 C 1565.948 1089.471, 1528.725 1090.192, 1511 1088.964 C 1462.899 1085.631, 1408.593 1075.080, 1351.347 1057.944 C 1342.081 1055.170, 1332.538 1052.700, 1330.140 1052.454 C 1327.742 1052.209, 1323.017 1051.560, 1319.640 1051.013 C 1309.753 1049.410, 1287.601 1048.841, 1272.500 1049.801 C 1259.328 1050.639, 1260.128 1050.691, 1286.024 1050.689 C 1304.942 1050.688, 1314.223 1051.049, 1315.708 1051.844 C 1316.896 1052.480, 1319.852 1053, 1322.275 1053 C 1324.699 1053, 1328.891 1053.670, 1331.591 1054.489 C 1334.291 1055.308, 1337.519 1055.983, 1338.764 1055.989 C 1340.009 1055.995, 1341.809 1056.401, 1342.764 1056.892 C 1343.719 1057.382, 1348.550 1059.013, 1353.500 1060.516 C 1358.450 1062.019, 1363.281 1063.643, 1364.236 1064.124 C 1365.191 1064.606, 1367.302 1065, 1368.927 1065 C 1370.552 1065, 1372.160 1065.450, 1372.500 1066 C 1372.840 1066.550, 1374.591 1067, 1376.392 1067 C 1378.193 1067, 1380.004 1067.337, 1380.416 1067.749 C 1381.317 1068.650, 1390.029 1070.963, 1395.256 1071.689 C 1397.322 1071.976, 1399.261 1072.614, 1399.565 1073.106 C 1399.869 1073.598, 1401.865 1074, 1404 1074 C 1406.135 1074, 1408.160 1074.450, 1408.500 1075 C 1408.840 1075.550, 1410.696 1076, 1412.625 1076 C 1414.553 1076, 1417.032 1076.482, 1418.132 1077.071 C 1419.233 1077.660, 1422.466 1078.586, 1425.317 1079.129 C 1430.234 1080.066, 1433.342 1080.632, 1446.750 1083.027 C 1449.912 1083.592, 1456.015 1084.483, 1460.312 1085.007 C 1464.608 1085.530, 1468.658 1086.293, 1469.312 1086.701 C 1469.965 1087.110, 1474.775 1087.780, 1480 1088.189 C 1517.345 1091.119, 1549.829 1091.770, 1571.500 1090.023 C 1598.245 1087.867, 1602.533 1087.412, 1603.855 1086.592 C 1604.601 1086.130, 1606.851 1085.558, 1608.855 1085.321 C 1610.860 1085.083, 1613.805 1084.464, 1615.399 1083.945 C 1616.994 1083.425, 1619.555 1083, 1621.090 1083 C 1622.626 1083, 1624.129 1082.600, 1624.432 1082.110 C 1624.734 1081.621, 1626.448 1080.971, 1628.241 1080.666 C 1635.879 1079.365, 1640.689 1078.218, 1643.500 1077.024 C 1645.150 1076.324, 1647.513 1075.357, 1648.750 1074.875 C 1649.987 1074.394, 1652.013 1073.585, 1653.250 1073.078 C 1654.487 1072.570, 1657.750 1071.390, 1660.500 1070.456 C 1667.221 1068.171, 1691.728 1056.198, 1695.594 1053.311 C 1697.296 1052.040, 1699.032 1051, 1699.451 1051 C 1700.694 1051, 1719.010 1038.063, 1725.500 1032.601 C 1734.632 1024.915, 1750.835 1008.390, 1757.466 1000 C 1760.726 995.875, 1763.643 992.275, 1763.949 992 C 1766.386 989.810, 1781 965.301, 1781 963.404 C 1781 962.617, 1781.405 961.191, 1781.900 960.236 C 1782.396 959.281, 1783.620 955.895, 1784.621 952.710 C 1786.354 947.197, 1786.359 946.689, 1784.721 942.076 C 1783.774 939.412, 1783 936.547, 1783 935.710 C 1783 933.063, 1779.057 926.669, 1774.148 921.358 C 1768.882 915.661, 1759.003 910.004, 1752 908.677 C 1749.193 908.144, 1743.394 906.178, 1740.764 904.866 C 1739.809 904.390, 1737.923 904, 1736.573 904 C 1735.223 904, 1733.840 903.550, 1733.500 903 C 1733.160 902.450, 1731.585 902, 1730 902 C 1728.415 902, 1726.840 901.550, 1726.500 901 C 1726.160 900.450, 1724.870 900, 1723.632 900 C 1722.395 900, 1720.509 899.339, 1719.441 898.532 C 1718.374 897.724, 1716.514 897.049, 1715.309 897.032 C 1714.104 897.014, 1712.840 896.550, 1712.500 896 C 1712.160 895.450, 1710.784 895, 1709.441 895 C 1708.098 895, 1707 894.550, 1707 894 C 1707 893.450, 1706.094 893, 1704.986 893 C 1703.879 893, 1702.191 892.572, 1701.236 892.048 C 1700.281 891.525, 1697.700 890.353, 1695.500 889.444 C 1689.740 887.065, 1682.914 883.987, 1679.846 882.385 C 1678.386 881.623, 1676.473 881, 1675.596 881 C 1674.718 881, 1674 880.550, 1674 880 C 1674 879.450, 1673.438 878.992, 1672.750 878.982 C 1670.766 878.955, 1643.040 864.712, 1630.206 857.128 C 1627.294 855.408, 1624.681 854, 1624.399 854 C 1624.117 854, 1618.987 850.850, 1613 847 C 1607.013 843.150, 1601.676 840, 1601.140 840 C 1600.605 840, 1600.017 839.611, 1599.833 839.135 C 1599.650 838.659, 1596.164 836.071, 1592.087 833.385 C 1578.910 824.702, 1577.505 823.710, 1577.167 822.848 C 1576.983 822.382, 1576.462 822, 1576.007 822 C 1575.098 822, 1559.835 810.884, 1553.500 805.608 C 1551.300 803.776, 1546.465 799.985, 1542.756 797.183 C 1539.048 794.382, 1534.998 791.124, 1533.756 789.943 C 1532.515 788.762, 1529.925 786.604, 1528.001 785.148 C 1526.076 783.692, 1523.601 781.667, 1522.501 780.648 C 1521.400 779.629, 1518.940 777.604, 1517.033 776.148 C 1515.126 774.692, 1511.954 771.925, 1509.985 770 C 1505.207 765.331, 1487.748 749.327, 1481.500 743.889 C 1471.951 735.579, 1428.266 691.441, 1419.256 681 C 1414.272 675.225, 1406.162 666.579, 1401.234 661.788 C 1389.684 650.557, 1389.072 649.124, 1392.531 641.405 C 1393.986 638.157, 1395.977 633.700, 1396.956 631.500 C 1397.934 629.300, 1399.517 625.758, 1400.472 623.628 C 1401.428 621.499, 1402.569 618.574, 1403.009 617.128 C 1403.448 615.683, 1405.199 610.675, 1406.899 606 C 1408.599 601.325, 1409.992 596.706, 1409.995 595.736 C 1409.998 594.766, 1410.413 593.191, 1410.917 592.236 C 1411.421 591.281, 1412.577 587.800, 1413.485 584.500 C 1414.393 581.200, 1415.555 577.466, 1416.068 576.203 C 1416.580 574.940, 1417 572.829, 1417 571.512 C 1417 570.195, 1417.450 568.840, 1418 568.500 C 1418.550 568.160, 1419 565.910, 1419 563.500 C 1419 561.090, 1419.402 558.869, 1419.894 558.565 C 1420.821 557.993, 1421.539 554.132, 1422.790 543 C 1423.192 539.425, 1423.953 535.825, 1424.480 535 C 1426.380 532.031, 1427.288 523.151, 1430.055 480.500 C 1431.369 460.261, 1431.365 453.512, 1430.027 432.500 C 1429.432 423.150, 1428.702 408.975, 1428.404 401 C 1428.106 393.025, 1427.444 386.073, 1426.931 385.550 C 1426.419 385.028, 1426 381.735, 1426 378.234 C 1426 374.733, 1425.470 370.886, 1424.823 369.684 C 1424.175 368.483, 1423.288 364.350, 1422.850 360.500 C 1420.987 344.103, 1420.383 341.081, 1418.565 339.072 C 1416.105 336.353, 1415.729 336.421, 1411.821 340.281 M 1174.953 463.638 C 1172.504 469.488, 1169.936 475.563, 1169.247 477.138 C 1168.558 478.712, 1168.227 480, 1168.511 480 C 1168.795 480, 1170.146 477.525, 1171.514 474.500 C 1172.881 471.475, 1175.113 466.537, 1176.474 463.527 C 1178.973 458, 1180.558 453, 1179.811 453 C 1179.589 453, 1177.402 457.787, 1174.953 463.638 M 1112 706.294 C 1139.997 733.799, 1165.032 753.405, 1187.500 765.425 C 1191.350 767.484, 1193.600 768.421, 1192.500 767.506 C 1191.400 766.592, 1188.700 764.917, 1186.500 763.785 C 1181.178 761.046, 1158.161 745.714, 1155 742.803 C 1153.625 741.536, 1150.700 739.174, 1148.500 737.553 C 1146.300 735.932, 1144.275 734.341, 1144 734.018 C 1143.725 733.695, 1142.225 732.452, 1140.667 731.256 C 1137.394 728.744, 1119.733 712.709, 1112.750 705.911 C 1107.941 701.228, 1106.797 698.413, 1109.463 697.823 C 1110.268 697.645, 1107.456 695.831, 1103.213 693.792 L 1095.500 690.084 1112 706.294 M 1174.318 715.645 C 1175.393 716.728, 1185.310 719.035, 1191 719.526 C 1194.576 719.835, 1193.960 719.528, 1188 718.031 C 1177.588 715.417, 1173.359 714.680, 1174.318 715.645 M 1234.500 730 C 1234.840 730.550, 1236.195 731, 1237.512 731 C 1238.829 731, 1240.940 731.402, 1242.203 731.894 C 1243.466 732.385, 1247.200 733.582, 1250.500 734.552 C 1253.800 735.523, 1259.121 737.187, 1262.325 738.250 C 1265.529 739.313, 1268.370 739.964, 1268.638 739.695 C 1269.183 739.151, 1258.182 735.432, 1244.543 731.549 C 1234.567 728.710, 1233.612 728.562, 1234.500 730 M 1291.670 751.653 C 1293.413 753.219, 1296.896 756.215, 1299.409 758.311 C 1301.923 760.407, 1306.496 765.466, 1309.572 769.553 C 1315.959 778.039, 1319.109 780.833, 1313.938 773.425 C 1309.748 767.423, 1296.792 754.238, 1292 751.099 L 1288.500 748.807 1291.670 751.653 M 1215 778.015 C 1220.775 780.153, 1247.896 785.437, 1248.744 784.590 C 1249.014 784.319, 1247.945 783.843, 1246.368 783.533 C 1244.791 783.222, 1241.581 782.525, 1239.236 781.984 C 1236.890 781.443, 1233.740 780.989, 1232.236 780.976 C 1230.731 780.964, 1226.125 780.017, 1222 778.873 C 1211.557 775.977, 1208.476 775.599, 1215 778.015 M 1262.945 788.514 C 1270.340 790.400, 1276.592 791.741, 1276.839 791.495 C 1277.326 791.007, 1277.275 790.989, 1268.500 788.523 C 1265.200 787.596, 1261.195 786.424, 1259.601 785.919 C 1258.006 785.413, 1255.081 785.019, 1253.101 785.043 C 1250.773 785.071, 1254.255 786.298, 1262.945 788.514 M 1284.500 794.879 C 1296.582 799.647, 1311.215 807.713, 1318.886 813.835 C 1326.911 820.239, 1336.709 831.713, 1340.589 839.250 C 1341.933 841.862, 1343.220 844, 1343.448 844 C 1344.067 844, 1338.305 822.966, 1337.471 822.178 C 1337.075 821.805, 1337.060 822.503, 1337.437 823.730 C 1337.814 824.956, 1337.689 826.733, 1337.161 827.677 C 1336.336 829.151, 1335.086 828.260, 1328.350 821.395 C 1319.145 812.014, 1313.603 807.896, 1302 801.818 C 1293.638 797.438, 1280.397 791.944, 1278.479 792.058 C 1277.940 792.091, 1280.650 793.360, 1284.500 794.879 M 1244 1052.123 C 1240.425 1052.601, 1234.125 1053.620, 1230 1054.388 L 1222.500 1055.784 1228 1055.881 C 1231.025 1055.935, 1235.709 1055.308, 1238.409 1054.489 C 1241.109 1053.670, 1245.834 1052.968, 1248.909 1052.930 C 1251.984 1052.891, 1255.400 1052.473, 1256.500 1052 C 1259.142 1050.865, 1252.948 1050.925, 1244 1052.123 M 1204.500 1058.967 C 1188.698 1062.360, 1166.744 1067.907, 1166.025 1068.686 C 1165.736 1068.999, 1167.075 1068.951, 1169 1068.580 C 1170.925 1068.209, 1173.967 1067.652, 1175.759 1067.342 C 1177.552 1067.032, 1179.266 1066.379, 1179.568 1065.890 C 1179.871 1065.400, 1181.865 1065, 1184 1065 C 1186.135 1065, 1188.160 1064.550, 1188.500 1064 C 1188.840 1063.450, 1190.637 1063, 1192.494 1063 C 1194.351 1063, 1197.137 1062.481, 1198.685 1061.848 C 1200.233 1061.214, 1203.750 1060.338, 1206.500 1059.901 C 1215.922 1058.403, 1221.020 1057.314, 1221.676 1056.657 C 1222.890 1055.443, 1217.585 1056.156, 1204.500 1058.967 M 1144.853 1074.670 C 1143.947 1074.910, 1142.964 1075.871, 1142.668 1076.804 C 1142.373 1077.737, 1140.354 1083.675, 1138.182 1090 C 1123.930 1131.492, 1115.589 1182.423, 1114.652 1233.669 C 1114.311 1252.348, 1114.366 1253.479, 1115.034 1241.500 C 1115.464 1233.800, 1116.129 1221.875, 1116.512 1215 C 1116.896 1208.125, 1117.612 1202.072, 1118.105 1201.550 C 1118.597 1201.027, 1119 1195.951, 1119 1190.268 C 1119 1183.346, 1119.495 1178.751, 1120.500 1176.346 C 1121.325 1174.371, 1122 1170.587, 1122 1167.937 C 1122 1165.287, 1122.450 1162.840, 1123 1162.500 C 1123.550 1162.160, 1124 1158.785, 1124 1155 C 1124 1151.215, 1124.450 1147.840, 1125 1147.500 C 1125.550 1147.160, 1126 1145.135, 1126 1143 C 1126 1140.865, 1126.450 1138.840, 1127 1138.500 C 1127.550 1138.160, 1128 1135.710, 1128 1133.055 C 1128 1130.401, 1128.672 1126.940, 1129.494 1125.364 C 1130.315 1123.789, 1130.990 1121.514, 1130.994 1120.309 C 1130.997 1119.104, 1131.450 1117.840, 1132 1117.500 C 1132.550 1117.160, 1133 1115.135, 1133 1113 C 1133 1110.865, 1133.450 1108.840, 1134 1108.500 C 1134.550 1108.160, 1135 1106.777, 1135 1105.427 C 1135 1104.077, 1135.411 1102.191, 1135.913 1101.236 C 1136.416 1100.281, 1137.784 1096.399, 1138.953 1092.608 C 1141.791 1083.408, 1144.772 1077.025, 1146.548 1076.343 C 1147.346 1076.037, 1148 1075.384, 1148 1074.893 C 1148 1073.965, 1147.609 1073.937, 1144.853 1074.670 M 404.574 1124.689 C 404.223 1127.335, 403.779 1135.800, 403.586 1143.500 C 403.393 1151.200, 403.402 1155.700, 403.606 1153.500 C 405.738 1130.516, 406.397 1110.927, 404.574 1124.689 M 362.182 1152.922 C 357.682 1157.828, 354 1162.151, 354 1162.527 C 354 1163.187, 356.078 1161.066, 363.853 1152.467 C 369.630 1146.079, 371.345 1144, 370.836 1144 C 370.576 1144, 366.681 1148.015, 362.182 1152.922 M 401.630 1174.250 C 400.806 1177.327, 400.974 1218.080, 401.820 1220.213 C 402.194 1221.155, 402.508 1210.692, 402.519 1196.963 C 402.529 1183.233, 402.469 1172, 402.385 1172 C 402.302 1172, 401.962 1173.013, 401.630 1174.250 M 403.145 1255.236 C 403.065 1264.440, 403.436 1273.890, 403.968 1276.236 C 404.999 1280.776, 406.526 1291.423, 408.022 1304.500 C 409.795 1319.997, 410.202 1322.509, 411.097 1323.450 C 411.594 1323.973, 412 1326.191, 412 1328.379 C 412 1330.567, 412.408 1333.740, 412.906 1335.429 C 414.756 1341.696, 417.017 1352.585, 417.008 1355.191 C 417.004 1356.671, 417.450 1358.160, 418 1358.500 C 418.550 1358.840, 419 1360.640, 419 1362.500 C 419 1364.360, 419.450 1366.160, 420 1366.500 C 420.550 1366.840, 421 1368.522, 421 1370.238 C 421 1371.954, 421.421 1374.740, 421.935 1376.429 C 422.450 1378.118, 423.624 1382.425, 424.546 1386 C 425.467 1389.575, 426.587 1393.400, 427.035 1394.500 C 427.905 1396.636, 428.809 1400.482, 429.682 1405.759 C 429.978 1407.552, 430.621 1409.266, 431.110 1409.568 C 431.600 1409.871, 432 1411.351, 432 1412.859 C 432 1414.367, 432.387 1416.028, 432.860 1416.550 C 433.333 1417.073, 434.520 1419.975, 435.497 1423 C 437.488 1429.164, 438.812 1432.672, 440.117 1435.236 C 440.603 1436.191, 440.999 1437.541, 440.997 1438.236 C 440.994 1439.470, 445.309 1450.781, 447.100 1454.236 C 447.595 1455.191, 448 1456.789, 448 1457.786 C 448 1458.784, 448.376 1460.028, 448.837 1460.550 C 449.297 1461.073, 450.693 1463.975, 451.941 1467 C 453.188 1470.025, 454.882 1474.075, 455.706 1476 C 456.530 1477.925, 457.562 1480.400, 458 1481.500 C 461.067 1489.205, 467.208 1502.596, 471.758 1511.500 C 473.726 1515.350, 475.661 1519.175, 476.060 1520 C 482.726 1533.794, 487.590 1542.951, 495.820 1557.197 C 499.219 1563.081, 502 1568.129, 502 1568.416 C 502 1569.272, 511.260 1583.342, 513.203 1585.439 C 514.191 1586.505, 515 1587.738, 515 1588.178 C 515 1590.204, 543.473 1632.074, 550.751 1640.750 C 559.299 1650.941, 556.828 1645.824, 546.440 1631.825 C 462.285 1518.414, 413.757 1388.105, 404.059 1249.500 L 403.289 1238.500 403.145 1255.236 M 1115.379 1274 C 1119.770 1364.711, 1151.068 1457.302, 1204.277 1537 C 1255.736 1614.077, 1330.783 1685.918, 1421 1744.467 C 1440.707 1757.257, 1441 1757.419, 1441 1755.559 C 1441 1754.053, 1429.439 1746.028, 1420.721 1741.484 C 1418.643 1740.401, 1415.760 1738.498, 1414.316 1737.257 C 1412.871 1736.016, 1411.373 1735, 1410.988 1735 C 1410.602 1735, 1407.276 1732.750, 1403.597 1730 C 1399.919 1727.250, 1396.685 1725, 1396.412 1725 C 1396.138 1725, 1393.346 1723.092, 1390.207 1720.760 C 1387.068 1718.428, 1382.025 1714.831, 1379 1712.766 C 1373.396 1708.941, 1358.536 1697.596, 1353.987 1693.669 C 1352.605 1692.476, 1347.495 1688.350, 1342.633 1684.500 C 1337.770 1680.650, 1332.282 1676.114, 1330.436 1674.420 C 1328.591 1672.726, 1318.897 1663.951, 1308.895 1654.920 C 1284.533 1632.924, 1272.553 1620.907, 1263.293 1609.176 C 1260.981 1606.248, 1255.417 1599.860, 1250.928 1594.981 C 1246.439 1590.103, 1242.041 1585.073, 1241.155 1583.805 C 1240.269 1582.537, 1238.785 1580.600, 1237.858 1579.500 C 1232.638 1573.304, 1223.688 1561.440, 1214.196 1548.132 C 1209.182 1541.103, 1198 1523.985, 1198 1523.338 C 1198 1523.025, 1196.425 1520.622, 1194.500 1518 C 1192.575 1515.378, 1191 1512.972, 1191 1512.655 C 1191 1512.337, 1188.638 1508.097, 1185.750 1503.232 C 1182.862 1498.366, 1179.150 1491.711, 1177.500 1488.443 C 1175.850 1485.174, 1174.162 1482.350, 1173.750 1482.167 C 1173.338 1481.983, 1173.001 1481.308, 1173.003 1480.667 C 1173.005 1480.025, 1170.494 1474.325, 1167.424 1468 C 1161.295 1455.371, 1157.323 1446.848, 1155.773 1443 C 1155.220 1441.625, 1154.369 1439.719, 1153.883 1438.764 C 1153.397 1437.809, 1153 1436.340, 1153 1435.500 C 1153 1434.660, 1152.600 1433.191, 1152.111 1432.236 C 1151.622 1431.281, 1150.431 1428.700, 1149.464 1426.500 C 1148.497 1424.300, 1147.322 1421.719, 1146.853 1420.764 C 1146.384 1419.809, 1146 1418.340, 1146 1417.500 C 1146 1416.660, 1145.605 1415.191, 1145.123 1414.236 C 1143.953 1411.921, 1142 1405.648, 1142 1404.206 C 1142 1403.573, 1140.912 1400.680, 1139.582 1397.777 C 1138.253 1394.875, 1136.930 1391.150, 1136.643 1389.500 C 1135.668 1383.893, 1134.851 1380.504, 1133.993 1378.500 C 1133.522 1377.400, 1132.931 1375.150, 1132.679 1373.500 C 1132.428 1371.850, 1131.467 1368.025, 1130.543 1365 C 1128.782 1359.233, 1127.275 1352.232, 1126.347 1345.500 C 1126.043 1343.300, 1125.391 1341.072, 1124.898 1340.550 C 1124.404 1340.028, 1124 1336.792, 1124 1333.359 C 1124 1329.926, 1123.550 1326.840, 1123 1326.500 C 1122.450 1326.160, 1122 1323.404, 1122 1320.375 C 1122 1317.347, 1121.447 1313.886, 1120.771 1312.684 C 1120.096 1311.483, 1119.201 1305.100, 1118.783 1298.500 C 1118.365 1291.900, 1117.681 1281.025, 1117.262 1274.332 C 1116.843 1267.640, 1116.101 1261.790, 1115.612 1261.332 C 1115.097 1260.849, 1114.999 1266.152, 1115.379 1274 M 580.673 1523.500 C 573.059 1556.829, 563.323 1609.354, 559.671 1636.800 C 558.206 1647.811, 559.436 1649.598, 561.113 1638.894 C 563.150 1625.900, 564.119 1619.329, 565.009 1612.500 C 565.510 1608.650, 566.349 1602.800, 566.872 1599.500 C 567.396 1596.200, 568.305 1590.209, 568.893 1586.186 C 569.480 1582.163, 570.294 1578.338, 570.701 1577.686 C 571.107 1577.034, 571.773 1574.250, 572.181 1571.500 C 572.914 1566.549, 574.018 1560.701, 575.862 1552 C 576.386 1549.525, 577.270 1545.025, 577.825 1542 C 578.381 1538.975, 579.322 1535.233, 579.918 1533.685 C 580.513 1532.137, 581 1529.520, 581 1527.869 C 581 1526.219, 581.478 1523.976, 582.062 1522.885 C 582.646 1521.794, 582.983 1519.686, 582.812 1518.201 C 582.604 1516.403, 581.889 1518.174, 580.673 1523.500 M 591 1519.348 C 591 1519.759, 592.467 1522.437, 594.259 1525.298 C 596.052 1528.159, 598.153 1531.737, 598.928 1533.250 C 599.704 1534.763, 600.702 1536, 601.147 1536 C 601.593 1536, 599.872 1532.513, 597.324 1528.250 C 592.515 1520.207, 591 1518.074, 591 1519.348 M 602 1537.275 C 602 1539.011, 634.735 1589.422, 636.886 1591 C 637.261 1591.275, 639.780 1594.650, 642.483 1598.500 C 645.186 1602.350, 651.468 1610.675, 656.444 1617 C 665.750 1628.830, 666.682 1629.966, 674.125 1638.540 C 676.531 1641.311, 680.750 1646.225, 683.500 1649.459 C 698.695 1667.329, 729.238 1698.080, 743.563 1709.930 C 745.178 1711.266, 750.160 1715.541, 754.634 1719.430 C 768.201 1731.223, 778.297 1739.042, 812.719 1764.416 C 816.139 1766.937, 819.364 1769, 819.885 1769 C 820.407 1769, 820.983 1769.378, 821.167 1769.840 C 821.542 1770.788, 840.538 1783, 841.635 1783 C 842.024 1783, 843.169 1783.748, 844.178 1784.661 C 845.188 1785.575, 846.850 1786.812, 847.871 1787.411 C 848.893 1788.010, 851.477 1789.510, 853.614 1790.744 C 855.751 1791.979, 859.300 1794.113, 861.500 1795.487 C 863.700 1796.861, 867.075 1798.776, 869 1799.743 C 870.925 1800.709, 872.725 1801.733, 873 1802.018 C 875.319 1804.421, 926.834 1829.603, 938.500 1834.036 C 939.600 1834.454, 942.143 1835.517, 944.151 1836.398 C 946.159 1837.279, 948.077 1838, 948.412 1838 C 948.747 1838, 950.929 1838.842, 953.261 1839.871 C 955.592 1840.900, 960.425 1842.965, 964 1844.459 C 967.575 1845.954, 972.408 1848.037, 974.739 1849.088 C 977.071 1850.140, 979.568 1851, 980.289 1851 C 981.010 1851, 982.027 1851.370, 982.550 1851.823 C 983.072 1852.276, 986.200 1853.494, 989.500 1854.529 C 992.800 1855.564, 995.928 1856.768, 996.450 1857.205 C 996.973 1857.642, 998.216 1858, 999.214 1858 C 1000.211 1858, 1001.809 1858.405, 1002.764 1858.900 C 1003.719 1859.396, 1007.200 1860.584, 1010.500 1861.540 C 1013.800 1862.497, 1017.400 1863.616, 1018.500 1864.026 C 1019.600 1864.436, 1022.525 1865.307, 1025 1865.961 C 1027.475 1866.614, 1033.100 1868.201, 1037.500 1869.486 C 1041.900 1870.771, 1047.300 1872.346, 1049.500 1872.987 C 1051.700 1873.628, 1055.228 1874.006, 1057.339 1873.826 C 1060.412 1873.565, 1057.217 1872.424, 1041.339 1868.112 C 900.885 1829.969, 781.666 1756.890, 686.331 1650.500 C 661.018 1622.252, 633.865 1586.355, 612.579 1553 C 601.757 1536.041, 602 1536.402, 602 1537.275 M 992.016 1560.437 C 997.070 1567.036, 1028.172 1596.321, 1039.875 1605.500 C 1043.381 1608.250, 1047.656 1611.658, 1049.375 1613.073 C 1051.094 1614.488, 1055.650 1617.855, 1059.500 1620.554 C 1063.350 1623.254, 1066.650 1625.808, 1066.833 1626.231 C 1067.017 1626.654, 1067.749 1627, 1068.461 1627 C 1069.173 1627, 1070.366 1627.736, 1071.113 1628.636 C 1072.294 1630.060, 1078.573 1634.517, 1081.500 1636.010 C 1082.050 1636.291, 1087.099 1639.553, 1092.721 1643.260 C 1098.342 1646.967, 1103.405 1650, 1103.971 1650 C 1104.537 1650, 1105 1650.450, 1105 1651 C 1105 1651.550, 1105.459 1652, 1106.020 1652 C 1106.581 1652, 1108.876 1653.159, 1111.119 1654.575 C 1113.363 1655.992, 1117.292 1658.321, 1119.850 1659.751 C 1122.407 1661.181, 1127.200 1663.860, 1130.500 1665.703 C 1133.800 1667.547, 1138.525 1669.980, 1141 1671.109 C 1143.475 1672.239, 1146.400 1673.651, 1147.500 1674.247 C 1158.624 1680.274, 1187.921 1693.880, 1196.500 1697.004 C 1199.491 1698.093, 1210.324 1702.717, 1213.236 1704.147 C 1214.191 1704.616, 1215.789 1705, 1216.786 1705 C 1217.784 1705, 1219.028 1705.379, 1219.550 1705.843 C 1220.073 1706.307, 1223.087 1707.474, 1226.248 1708.436 C 1229.410 1709.398, 1232.249 1710.593, 1232.557 1711.092 C 1232.866 1711.592, 1233.998 1712, 1235.073 1712 C 1236.148 1712, 1237.809 1712.408, 1238.764 1712.908 C 1239.719 1713.407, 1242.750 1714.512, 1245.500 1715.364 C 1252.798 1717.625, 1257.867 1719.533, 1258.648 1720.315 C 1259.025 1720.692, 1260.389 1721, 1261.680 1721 C 1262.971 1721, 1264.809 1721.395, 1265.764 1721.877 C 1267.883 1722.948, 1273.373 1724.607, 1277.739 1725.495 C 1279.520 1725.857, 1281.234 1726.569, 1281.548 1727.077 C 1281.861 1727.585, 1283.415 1728, 1285 1728 C 1286.585 1728, 1288.160 1728.450, 1288.500 1729 C 1288.840 1729.550, 1290.448 1730, 1292.073 1730 C 1293.698 1730, 1295.809 1730.405, 1296.764 1730.900 C 1298.442 1731.771, 1304.650 1733.623, 1314 1736.043 C 1316.475 1736.684, 1319.534 1737.611, 1320.797 1738.104 C 1322.060 1738.597, 1324.798 1739, 1326.880 1739 C 1328.963 1739, 1330.976 1739.309, 1331.354 1739.687 C 1332.504 1740.838, 1345.261 1743.881, 1349.191 1743.942 C 1351.221 1743.974, 1353.160 1744.450, 1353.500 1745 C 1353.840 1745.550, 1355.865 1746, 1358 1746 C 1360.135 1746, 1362.160 1746.450, 1362.500 1747 C 1362.840 1747.550, 1365.312 1748, 1367.994 1748 C 1370.676 1748, 1374.134 1748.481, 1375.679 1749.068 C 1377.224 1749.656, 1381.191 1750.542, 1384.494 1751.037 C 1387.797 1751.533, 1392.975 1752.425, 1396 1753.020 C 1399.025 1753.616, 1404.200 1754.508, 1407.500 1755.004 C 1410.800 1755.499, 1416.359 1756.332, 1419.853 1756.855 C 1423.347 1757.378, 1426.700 1758.300, 1427.303 1758.903 C 1428.627 1760.227, 1437.918 1760.338, 1439.948 1759.053 C 1441.761 1757.907, 1442.577 1758.078, 1413.500 1753.492 C 1237.836 1725.781, 1100.818 1665.163, 1005.525 1573 C 997.279 1565.025, 991.200 1559.372, 992.016 1560.437 M 983.264 1569.500 C 983.228 1574.450, 983.534 1582.325, 983.944 1587 L 984.690 1595.500 984.728 1588 C 984.748 1583.875, 984.442 1576, 984.047 1570.500 L 983.330 1560.500 983.264 1569.500 M 985.764 1608.500 C 986.068 1612.350, 987.093 1621.350, 988.041 1628.500 C 989.452 1639.134, 989.787 1640.434, 989.883 1635.643 C 989.988 1630.388, 989.399 1625.858, 986.156 1607 C 985.229 1601.607, 985.221 1601.636, 985.764 1608.500 M 990.054 1643.583 C 990.084 1644.638, 990.960 1650.225, 992.001 1656 C 993.454 1664.058, 993.798 1665.105, 993.483 1660.500 C 992.986 1653.223, 991.361 1643.028, 990.574 1642.240 C 990.258 1641.925, 990.024 1642.529, 990.054 1643.583 M 1003.030 1710.420 C 1002.955 1712.704, 1011.421 1743.236, 1011.808 1742.075 C 1012.048 1741.357, 1011.702 1738.908, 1011.039 1736.634 C 1010.377 1734.360, 1009.458 1730.925, 1008.997 1729 C 1006.134 1717.043, 1003.122 1707.662, 1003.030 1710.420 M 1012.527 1747 C 1020.109 1772.201, 1031.904 1805.071, 1041.959 1829.022 C 1049.336 1846.595, 1062.128 1873, 1063.264 1873 C 1064.574 1873, 1063.260 1868.189, 1061.094 1865.061 C 1060.119 1863.652, 1056.729 1857.100, 1053.560 1850.500 C 1050.391 1843.900, 1047.394 1837.719, 1046.899 1836.764 C 1046.405 1835.809, 1046 1834.595, 1046 1834.067 C 1046 1833.538, 1044.374 1829.595, 1042.387 1825.303 C 1040.399 1821.011, 1038.413 1816.600, 1037.973 1815.500 C 1037.533 1814.400, 1035.813 1810.113, 1034.150 1805.972 C 1032.488 1801.832, 1030.393 1796.207, 1029.497 1793.472 C 1027.654 1787.854, 1023.258 1775.521, 1022.021 1772.500 C 1021.027 1770.073, 1020.082 1767.186, 1016.458 1755.500 C 1014.923 1750.550, 1013.242 1746.050, 1012.721 1745.500 C 1012.122 1744.867, 1012.051 1745.417, 1012.527 1747" stroke="none" fill="#dfeef8" fill-rule="evenodd"/><path d="M 1187.910 179.208 C 1175.305 196.127, 1163.371 209.779, 1146.074 227.065 C 1110.468 262.648, 1072.243 292.421, 1017.500 327.208 C 954.743 367.088, 867.476 410.620, 783.500 443.935 C 758.984 453.661, 756.207 454.556, 738.449 458.458 C 688.148 469.510, 642.527 486.180, 599.500 509.231 C 553.337 533.962, 515.701 562.032, 478.500 599.476 C 401.968 676.509, 347.178 766.409, 312.713 871.500 C 292.129 934.268, 281.251 989.910, 274.789 1065.500 C 272.789 1088.891, 273.119 1171.543, 275.305 1195 C 277.235 1215.703, 279.601 1235.273, 281.341 1244.927 L 282.500 1251.355 293.483 1236.427 C 313.397 1209.362, 341.432 1175.483, 365.828 1149 C 380.487 1133.087, 407.070 1105.718, 407.436 1106.162 C 407.590 1106.348, 407.153 1111.900, 406.465 1118.500 C 401.305 1168.014, 401.353 1229.214, 406.590 1277 C 419.634 1396.026, 459.289 1503.822, 527.070 1604.500 C 540.923 1625.077, 557.878 1647.511, 558.377 1645.924 C 558.623 1645.141, 559.353 1640.225, 560 1635 C 563.105 1609.904, 574.044 1551.582, 581.816 1518.680 L 584.608 1506.859 595.457 1525.180 C 653.904 1623.873, 725.088 1701.590, 813 1762.688 C 880.441 1809.558, 954.169 1843.910, 1036 1866.589 C 1048.925 1870.171, 1060.310 1873.342, 1061.300 1873.634 C 1062.695 1874.047, 1061.878 1871.725, 1057.677 1863.333 C 1036.531 1821.093, 1016.500 1765.569, 1004.055 1714.699 C 991.169 1662.024, 984.418 1613.397, 982.683 1560.756 L 982.329 1550.012 1001.414 1568.769 C 1022.091 1589.090, 1033.003 1598.554, 1054.207 1614.554 C 1134.229 1674.938, 1237.126 1718.596, 1358 1743.448 C 1375.457 1747.037, 1418.606 1754.592, 1437.414 1757.353 C 1442.332 1758.075, 1442.414 1758.144, 1425 1747.006 C 1388.974 1723.966, 1347.671 1692.672, 1316.500 1664.797 C 1199.746 1560.392, 1132.602 1437.620, 1117.538 1301 C 1109.614 1229.127, 1117.268 1150.885, 1138.182 1090 C 1140.354 1083.675, 1142.363 1077.777, 1142.645 1076.894 C 1143.473 1074.302, 1181.905 1063.425, 1209 1058.113 C 1224.438 1055.087, 1242.022 1052.309, 1254.500 1050.925 C 1269.604 1049.250, 1309.435 1049.195, 1319.225 1050.835 C 1323.474 1051.547, 1328.649 1052.302, 1330.725 1052.514 C 1332.801 1052.725, 1342.081 1055.168, 1351.347 1057.942 C 1408.561 1075.073, 1462.895 1085.631, 1511 1088.964 C 1528.725 1090.192, 1565.948 1089.471, 1583.319 1087.563 C 1638.083 1081.549, 1686.704 1062.655, 1723 1033.283 C 1744.405 1015.961, 1768.039 986.928, 1778.196 965.477 C 1781.296 958.931, 1781.497 957.851, 1781.457 948 C 1781.407 935.488, 1779.695 930.796, 1772.298 922.887 C 1766.509 916.699, 1759.569 913.072, 1746.958 909.644 C 1698.606 896.502, 1643.659 870.588, 1594.865 837.914 C 1534.195 797.287, 1489.552 757.628, 1406.410 670.500 L 1387.325 650.500 1390.249 644 C 1428.571 558.800, 1438.727 454.761, 1418.828 351.250 C 1417.638 345.063, 1416.343 340, 1415.949 340 C 1415.555 340, 1412.376 343.938, 1408.884 348.750 C 1383.712 383.443, 1343.948 422.214, 1297.814 457.046 C 1275.836 473.640, 1229.924 504.008, 1208.826 515.906 L 1203.152 519.105 1197.326 516.170 C 1191.739 513.355, 1166.544 502.281, 1160.682 500.064 L 1157.865 498.998 1162.848 489.749 C 1165.588 484.662, 1170.515 474.200, 1173.797 466.500 C 1204.796 393.756, 1215.942 310.602, 1206.435 223 C 1204.103 201.516, 1198.750 170.485, 1197.068 168.710 C 1196.657 168.276, 1192.536 173, 1187.910 179.208 M 1112 706.270 C 1144.170 737.920, 1171.595 758.408, 1199.469 771.612 C 1212.934 777.991, 1218.230 779.608, 1236.880 783.039 C 1255.695 786.499, 1270.031 789.960, 1281 793.689 C 1292.474 797.590, 1310.666 807.260, 1318.886 813.828 C 1326.915 820.243, 1336.712 831.719, 1340.589 839.250 C 1341.933 841.862, 1343.219 844, 1343.445 844 C 1343.671 844, 1342.747 839.837, 1341.392 834.750 C 1333.673 805.773, 1319.076 777.125, 1304.159 761.675 C 1285.993 742.861, 1269.371 736.601, 1188 717.926 C 1136.056 706.005, 1116.257 700.353, 1102.500 693.515 L 1095.500 690.036 1112 706.270" stroke="none" fill="#0480d1" fill-rule="evenodd"/></svg>