<?xml version="1.0" standalone="no"?>
<!DOCTYPE svg PUBLIC "-//W3C//DTD SVG 20010904//EN"
 "http://www.w3.org/TR/2001/REC-SVG-20010904/DTD/svg10.dtd">
<svg version="1.0" xmlns="http://www.w3.org/2000/svg"
 width="150.000000pt" height="150.000000pt" viewBox="0 0 150.000000 150.000000"
 preserveAspectRatio="xMidYMid meet">

<g transform="translate(0.000000,150.000000) scale(0.100000,-0.100000)"
fill="#FFFFFF" stroke="none">
<path d="M663 1330 c-234 -42 -429 -220 -488 -446 -19 -75 -19 -223 0 -299 51
-193 223 -357 430 -410 76 -19 214 -19 290 0 200 51 357 194 422 384 28 83 32
248 7 332 -47 160 -176 316 -314 381 -118 56 -242 76 -347 58z m145 -182 c26
-43 50 -78 55 -78 4 0 43 25 85 57 42 31 69 47 59 36 -9 -11 -28 -48 -41 -81
l-25 -62 87 0 87 -1 -72 -41 c-40 -23 -70 -45 -65 -48 12 -11 96 -39 127 -43
l30 -3 -30 -8 c-43 -11 -125 -48 -125 -57 0 -4 28 -32 63 -63 l62 -56 -60 25
c-33 13 -68 22 -79 19 -12 -4 -16 -2 -12 5 4 6 3 11 -3 11 -5 0 -16 3 -25 6
-11 4 -17 -4 -22 -31 -3 -20 -11 -34 -18 -32 -6 2 -9 13 -7 23 8 41 5 49 -16
52 -17 3 -23 -2 -23 -17 0 -11 -9 -26 -19 -33 -11 -8 -23 -26 -26 -40 l-7 -26
66 19 c37 10 73 25 82 33 8 9 23 16 32 16 13 0 11 -5 -8 -20 -19 -15 -21 -20
-9 -20 9 0 22 -7 29 -15 9 -11 9 -15 1 -15 -7 0 -10 -4 -7 -9 9 -14 -32 -1
-44 14 -12 14 -40 9 -52 -9 -4 -6 -8 -24 -8 -41 -1 -30 -1 -30 -11 -6 -5 14
-7 31 -4 39 4 10 -1 12 -18 6 -45 -13 -49 -24 -45 -106 3 -72 5 -79 37 -112
19 -20 43 -38 53 -42 10 -3 16 -9 13 -14 -11 -18 -76 23 -108 70 -13 18 -17
20 -17 8 0 -9 12 -29 26 -45 30 -32 14 -45 -19 -15 -22 21 -22 21 -47 2 -24
-19 -50 -26 -50 -14 0 3 14 19 30 34 17 15 30 36 30 47 -1 17 -1 17 -12 -2
-26 -48 -110 -106 -123 -85 -3 5 3 11 12 15 31 10 73 53 88 90 18 42 19 124 2
146 -16 22 -62 36 -55 18 3 -8 2 -23 -2 -34 -6 -16 -8 -13 -14 17 -7 39 -42
59 -61 35 -10 -13 -65 -40 -65 -32 0 2 12 11 28 20 l27 15 -30 -7 c-27 -6 -29
-5 -16 10 7 10 23 17 35 17 20 0 20 1 -4 20 -17 13 -20 20 -10 20 12 1 12 3
-2 11 -13 7 -34 3 -80 -16 -51 -20 -59 -21 -41 -6 12 10 42 36 68 59 l46 41
-44 25 c-24 14 -52 26 -63 26 -10 0 -26 5 -34 10 -12 8 -9 10 12 10 15 0 53
10 84 21 l57 21 -74 42 -74 41 83 3 c45 2 82 5 82 7 0 15 -44 113 -57 128 -28
30 -6 19 62 -33 36 -27 70 -50 74 -50 14 0 100 145 108 181 l8 34 3 -30 c2
-16 25 -65 50 -107z m-155 12 c-7 -27 -10 -25 -15 10 -3 22 -2 27 8 19 6 -5
10 -19 7 -29z m208 -7 c-4 -28 -6 -32 -9 -15 -3 22 3 52 11 52 1 0 1 -17 -2
-37z m-411 -74 c0 -5 -7 -9 -15 -9 -8 0 -15 7 -15 15 0 9 6 12 15 9 8 -4 15
-10 15 -15z m630 6 c0 -8 -7 -15 -15 -15 -26 0 -18 20 13 29 1 1 2 -6 2 -14z
m-747 -128 c-3 -5 -10 -4 -15 1 -6 6 -7 16 -3 22 6 9 9 9 16 -1 4 -7 5 -17 2
-22z m895 24 c8 -4 12 -19 10 -32 -4 -29 -45 -34 -61 -7 -19 30 19 60 51 39z
m-918 -131 c8 -14 8 -26 0 -40 -19 -35 -80 -20 -80 20 0 40 61 55 80 20z m800
-10 c0 -5 -2 -10 -4 -10 -3 0 -8 5 -11 10 -3 6 -1 10 4 10 6 0 11 -4 11 -10z
m-860 -110 c0 -5 -5 -10 -11 -10 -5 0 -7 5 -4 10 3 6 8 10 11 10 2 0 4 -4 4
-10z m104 -11 c-3 -5 -10 -7 -15 -3 -5 3 -7 10 -3 15 3 5 10 7 15 3 5 -3 7
-10 3 -15z m511 -19 c3 -5 0 -10 -9 -10 -8 0 -21 -3 -30 -6 -11 -4 -16 -1 -16
10 0 18 45 23 55 6z m340 -53 c-7 -4 -21 -4 -29 -1 -15 6 -15 8 1 19 12 9 20
9 29 1 9 -9 9 -13 -1 -19z m-824 -68 c24 -30 26 -31 25 -9 -1 32 18 35 34 6 7
-14 31 -39 52 -57 l40 -31 28 27 c23 22 32 26 43 16 8 -6 21 -9 29 -6 21 8 54
-43 41 -64 -13 -20 -71 -34 -143 -33 -79 0 -96 5 -142 40 -23 18 -47 32 -53
32 -19 0 -48 38 -39 52 10 19 46 58 53 58 3 0 18 -14 32 -31z m806 -1 c31 -32
31 -33 14 -55 -10 -12 -31 -25 -45 -29 -15 -4 -30 -13 -33 -21 -6 -14 -40 -32
-78 -40 -57 -12 -118 -14 -128 -4 -6 6 -23 11 -37 11 -15 0 -34 8 -43 18 -14
16 -13 19 8 46 13 16 28 26 34 21 7 -4 19 -1 27 6 12 10 20 7 45 -17 l31 -29
18 23 c10 12 22 22 27 22 4 0 19 16 32 35 18 27 27 33 37 24 10 -8 11 -16 3
-33 -7 -13 -2 -10 15 9 14 17 25 33 26 38 0 15 17 6 47 -25z m95 -26 c-31
-104 -159 -243 -273 -299 -70 -34 -191 -63 -261 -63 -72 0 -179 28 -258 66
-93 46 -202 151 -243 236 -51 107 -35 141 26 53 23 -33 45 -55 56 -55 10 0 24
-7 32 -16 14 -17 65 -46 89 -51 8 -1 29 -5 47 -9 18 -3 38 -12 44 -20 6 -8 19
-14 29 -14 9 0 25 -9 35 -20 10 -11 26 -20 35 -20 9 0 26 -11 38 -25 12 -14
27 -25 34 -25 6 0 19 -7 28 -15 15 -14 18 -14 30 0 7 8 18 15 24 15 7 0 22 11
34 25 12 14 28 25 35 25 8 0 22 9 32 20 10 11 28 20 40 20 13 0 25 6 28 14 5
12 79 32 101 27 5 -1 26 12 47 29 21 16 49 34 63 39 13 6 42 34 63 65 42 61
63 60 45 -2z m-648 -132 c-14 -14 -71 -30 -78 -22 -8 7 42 30 69 31 13 1 16
-2 9 -9z m290 -4 c21 -7 34 -16 27 -20 -6 -4 -30 2 -53 13 -49 22 -32 27 26 7z
m-187 -61 c18 -13 22 -13 33 0 14 17 77 20 100 5 13 -8 12 -10 -3 -10 -10 0
-29 -11 -43 -25 -14 -14 -31 -25 -37 -25 -7 0 -18 -5 -23 -10 -12 -12 -62 10
-89 40 -10 11 -25 20 -34 20 -14 0 -14 2 -1 10 22 14 73 12 97 -5z"/>
<path d="M760 1143 c0 -36 3 -42 26 -47 15 -4 27 -6 29 -4 1 2 -11 23 -26 48
l-29 44 0 -41z"/>
<path d="M708 1126 l-27 -44 30 10 c24 8 29 15 29 44 0 19 -1 34 -3 34 -1 0
-14 -20 -29 -44z"/>
<path d="M911 1072 c-30 -25 -32 -29 -17 -41 10 -8 20 -10 25 -5 8 9 32 74 28
74 -2 0 -18 -13 -36 -28z"/>
<path d="M560 1086 c0 -20 25 -66 36 -66 26 0 27 29 3 50 -22 18 -39 25 -39
16z"/>
<path d="M525 966 c36 -22 41 -23 47 -8 12 30 9 32 -39 32 l-48 0 40 -24z"/>
<path d="M927 973 c3 -10 8 -21 10 -25 3 -7 73 30 73 38 0 2 -20 4 -45 4 -38
0 -43 -3 -38 -17z"/>
<path d="M946 883 c1 -18 3 -36 6 -39 6 -6 78 27 78 35 0 4 -19 13 -42 21
l-43 16 1 -33z"/>
<path d="M500 894 l-35 -16 38 -19 c44 -23 57 -18 57 22 0 33 -9 35 -60 13z"/>
<path d="M530 789 l-35 -30 35 12 c43 15 51 21 42 36 -5 7 -18 1 -42 -18z"/>
<path d="M930 800 c0 -11 6 -20 14 -20 8 0 23 -3 33 -7 14 -5 13 -1 -6 20 -29
32 -41 34 -41 7z"/>
<path d="M680 781 c0 -6 8 -19 19 -30 10 -10 24 -27 30 -37 9 -16 10 -12 11
24 0 30 -4 42 -14 42 -8 0 -21 3 -30 6 -9 3 -16 1 -16 -5z"/>
<path d="M783 783 c-20 -4 -23 -11 -23 -51 l0 -47 19 31 c11 18 24 35 30 38
12 8 15 37 4 35 -5 -1 -18 -4 -30 -6z"/>
<path d="M616 772 c-2 -4 -1 -14 5 -22 11 -19 12 -50 0 -50 -5 0 -14 15 -21
34 -9 28 -14 32 -36 28 -19 -3 -22 -7 -13 -18 6 -8 8 -14 3 -14 -23 0 56 -40
100 -51 28 -7 55 -17 59 -23 5 -6 5 0 2 14 -4 14 -15 36 -26 50 -11 14 -22 33
-26 43 -5 17 -38 24 -47 9z m74 -78 c0 -11 -5 -14 -16 -10 -9 3 -23 6 -32 6
-15 0 -15 2 -2 10 23 15 50 12 50 -6z"/>
<path d="M397 509 c7 -7 15 -10 18 -7 3 3 -2 9 -12 12 -14 6 -15 5 -6 -5z"/>
<path d="M465 470 c21 -16 40 -30 43 -30 10 0 -62 59 -72 60 -5 0 8 -13 29
-30z"/>
<path d="M1090 510 c-9 -6 -10 -10 -3 -10 6 0 15 5 18 10 8 12 4 12 -15 0z"/>
<path d="M1044 486 c-10 -8 -17 -16 -14 -19 3 -2 14 4 24 14 23 22 18 25 -10
5z"/>
<path d="M439 349 c14 -5 31 -15 38 -21 10 -8 12 -7 8 5 -4 8 -16 18 -28 21
-34 9 -45 6 -18 -5z"/>
<path d="M1034 344 c-19 -15 -19 -15 1 -6 11 5 27 12 35 15 13 5 13 6 -1 6 -8
1 -24 -6 -35 -15z"/>
<path d="M511 306 c2 -2 18 -6 34 -10 22 -5 26 -4 15 4 -14 9 -59 15 -49 6z"/>
<path d="M939 293 c-12 -16 -12 -17 1 -6 8 6 26 13 40 16 l25 4 -26 2 c-15 0
-33 -7 -40 -16z"/>
</g>
</svg>
